<svg width="77" height="34" viewBox="0 0 77 34" fill="none" xmlns="http://www.w3.org/2000/svg">
<path d="M0 4C0 1.79086 1.79086 0 4 0H28C30.2091 0 32 1.79086 32 4V8C32 21.2548 21.2548 32 8 32H4C1.79086 32 0 30.2091 0 28V4Z" fill="#F59E0B"/>
<path d="M2 6C2 3.79086 3.79086 2 6 2H30C32.2091 2 34 3.79086 34 6V10C34 23.2548 23.2548 34 10 34H6C3.79086 34 2 32.2091 2 30V6Z" fill="#4BE4C9"/>
<path d="M16.352 23V11.8H19.072V23H16.352ZM9.408 23V11.8H12.128V23H9.408ZM10.464 18.632L10.48 16.2H17.792V18.632H10.464ZM25.6048 23.16C24.7194 23.16 23.9301 22.968 23.2368 22.584C22.5541 22.2 22.0101 21.6773 21.6048 21.016C21.2101 20.3547 21.0128 19.5973 21.0128 18.744C21.0128 17.8907 21.2101 17.1333 21.6048 16.472C22.0101 15.8107 22.5541 15.288 23.2368 14.904C23.9301 14.52 24.7194 14.328 25.6048 14.328C26.4901 14.328 27.2741 14.52 27.9568 14.904C28.6501 15.288 29.1941 15.8107 29.5888 16.472C29.9834 17.1333 30.1808 17.8907 30.1808 18.744C30.1808 19.5973 29.9834 20.3547 29.5888 21.016C29.1941 21.6773 28.6501 22.2 27.9568 22.584C27.2741 22.968 26.4901 23.16 25.6048 23.16ZM25.6048 20.952C25.9888 20.952 26.3301 20.856 26.6288 20.664C26.9274 20.472 27.1621 20.2107 27.3328 19.88C27.5034 19.5493 27.5834 19.1707 27.5728 18.744C27.5834 18.3173 27.5034 17.9387 27.3328 17.608C27.1621 17.2667 26.9274 17 26.6288 16.808C26.3301 16.616 25.9888 16.52 25.6048 16.52C25.2208 16.52 24.8741 16.616 24.5648 16.808C24.2661 17 24.0314 17.2667 23.8608 17.608C23.6901 17.9387 23.6101 18.3173 23.6208 18.744C23.6101 19.1707 23.6901 19.5493 23.8608 19.88C24.0314 20.2107 24.2661 20.472 24.5648 20.664C24.8741 20.856 25.2208 20.952 25.6048 20.952ZM34.7508 23.176C34.1214 23.176 33.5828 23.0427 33.1348 22.776C32.6974 22.4987 32.3561 22.104 32.1108 21.592C31.8761 21.08 31.7588 20.4667 31.7588 19.752V14.504H34.3348V19.4C34.3348 19.7413 34.3881 20.0347 34.4948 20.28C34.6014 20.5253 34.7614 20.7173 34.9748 20.856C35.1881 20.984 35.4441 21.048 35.7428 21.048C35.9668 21.048 36.1694 21.0107 36.3508 20.936C36.5428 20.8613 36.7028 20.76 36.8308 20.632C36.9694 20.4933 37.0761 20.3387 37.1508 20.168C37.2254 19.9867 37.2628 19.7893 37.2628 19.576V14.504H39.8388V23H37.4228L37.3108 21.256L37.7908 21.064C37.6628 21.4693 37.4494 21.832 37.1508 22.152C36.8521 22.4613 36.4948 22.712 36.0788 22.904C35.6628 23.0853 35.2201 23.176 34.7508 23.176ZM42.1204 23V14.504H44.5524L44.6324 16.232L44.1204 16.424C44.2377 16.04 44.4457 15.6933 44.7444 15.384C45.0537 15.064 45.4217 14.808 45.8484 14.616C46.275 14.424 46.723 14.328 47.1924 14.328C47.8324 14.328 48.371 14.4613 48.8084 14.728C49.2457 14.984 49.5764 15.3733 49.8004 15.896C50.0244 16.408 50.1364 17.0373 50.1364 17.784V23H47.5604V17.992C47.5604 17.6507 47.5124 17.368 47.4164 17.144C47.3204 16.92 47.171 16.7547 46.9684 16.648C46.7764 16.5307 46.5364 16.4773 46.2484 16.488C46.0244 16.488 45.8164 16.5253 45.6244 16.6C45.4324 16.664 45.267 16.7653 45.1284 16.904C44.9897 17.032 44.8777 17.1813 44.7924 17.352C44.7177 17.5227 44.6804 17.7093 44.6804 17.912V23H43.4164C43.1177 23 42.8617 23 42.6484 23C42.435 23 42.259 23 42.1204 23ZM52.9806 23V12.36H55.5406V23H52.9806ZM51.4766 16.744V14.504H57.1886V16.744H51.4766ZM62.6215 23.16C61.6828 23.16 60.8668 22.9733 60.1735 22.6C59.4802 22.216 58.9415 21.6987 58.5575 21.048C58.1735 20.3867 57.9815 19.6347 57.9815 18.792C57.9815 18.1413 58.0882 17.544 58.3015 17C58.5148 16.456 58.8135 15.9867 59.1975 15.592C59.5815 15.1867 60.0348 14.8773 60.5575 14.664C61.0908 14.44 61.6722 14.328 62.3015 14.328C62.8988 14.328 63.4428 14.4347 63.9335 14.648C64.4348 14.8613 64.8668 15.16 65.2295 15.544C65.5922 15.928 65.8695 16.3813 66.0615 16.904C66.2535 17.4267 66.3388 17.9973 66.3175 18.616L66.3015 19.304H59.5335L59.1655 17.864H64.2215L63.9495 18.168V17.848C63.9282 17.5813 63.8428 17.3467 63.6935 17.144C63.5548 16.9307 63.3682 16.7653 63.1335 16.648C62.8988 16.5307 62.6322 16.472 62.3335 16.472C61.9175 16.472 61.5602 16.5573 61.2615 16.728C60.9735 16.888 60.7548 17.128 60.6055 17.448C60.4562 17.7573 60.3815 18.1413 60.3815 18.6C60.3815 19.0693 60.4775 19.48 60.6695 19.832C60.8722 20.1733 61.1602 20.44 61.5335 20.632C61.9175 20.824 62.3708 20.92 62.8935 20.92C63.2562 20.92 63.5762 20.8667 63.8535 20.76C64.1415 20.6533 64.4508 20.472 64.7815 20.216L65.9815 21.912C65.6508 22.2 65.2988 22.4347 64.9255 22.616C64.5522 22.7973 64.1682 22.9307 63.7735 23.016C63.3895 23.112 63.0055 23.16 62.6215 23.16ZM67.9485 23V14.504H70.3805L70.4925 17.272L70.0125 16.744C70.1405 16.2853 70.3485 15.8747 70.6365 15.512C70.9352 15.1493 71.2818 14.8613 71.6765 14.648C72.0712 14.4347 72.4925 14.328 72.9405 14.328C73.1325 14.328 73.3085 14.344 73.4685 14.376C73.6392 14.408 73.7938 14.4453 73.9325 14.488L73.2285 17.32C73.1112 17.2453 72.9512 17.1867 72.7485 17.144C72.5565 17.0907 72.3538 17.064 72.1405 17.064C71.9058 17.064 71.6872 17.1067 71.4845 17.192C71.2818 17.2667 71.1112 17.3787 70.9725 17.528C70.8338 17.6773 70.7218 17.8533 70.6365 18.056C70.5618 18.2587 70.5245 18.488 70.5245 18.744V23H67.9485ZM74.3136 23.176C73.8763 23.176 73.535 23.0533 73.2896 22.808C73.055 22.5627 72.9376 22.2107 72.9376 21.752C72.9376 21.3253 73.0656 20.9787 73.3216 20.712C73.5776 20.4453 73.9083 20.312 74.3136 20.312C74.751 20.312 75.0923 20.44 75.3376 20.696C75.583 20.9413 75.7056 21.2933 75.7056 21.752C75.7056 22.168 75.5776 22.5093 75.3216 22.776C75.0656 23.0427 74.7296 23.176 74.3136 23.176Z" fill="#1B1C57"/>
</svg>
